<svg width="40" height="40" viewBox="0 0 40 40" fill="none" xmlns="http://www.w3.org/2000/svg">
<g clip-path="url(#clip0_2_50)">
<path d="M33.3334 29.1667C33.9754 29.167 34.5927 29.4143 35.0573 29.8574C35.522 30.3004 35.7984 30.9053 35.8292 31.5465C35.8601 32.1878 35.643 32.8164 35.2231 33.302C34.8031 33.7876 34.2124 34.0931 33.5734 34.155L33.3334 34.1667H6.66669C6.02466 34.1664 5.40736 33.9191 4.94271 33.476C4.47806 33.0329 4.20167 32.4281 4.17081 31.7868C4.13996 31.1455 4.35701 30.517 4.77698 30.0313C5.19695 29.5457 5.78765 29.2403 6.42669 29.1783L6.66669 29.1667H33.3334ZM33.3334 17.5C33.9964 17.5 34.6323 17.7634 35.1011 18.2322C35.57 18.7011 35.8334 19.337 35.8334 20C35.8334 20.6631 35.57 21.2989 35.1011 21.7678C34.6323 22.2366 33.9964 22.5 33.3334 22.5H6.66669C6.00365 22.5 5.36776 22.2366 4.89892 21.7678C4.43008 21.2989 4.16669 20.6631 4.16669 20C4.16669 19.337 4.43008 18.7011 4.89892 18.2322C5.36776 17.7634 6.00365 17.5 6.66669 17.5H33.3334ZM33.3334 5.83334C33.9964 5.83334 34.6323 6.09674 35.1011 6.56558C35.57 7.03442 35.8334 7.6703 35.8334 8.33334C35.8334 8.99638 35.57 9.63227 35.1011 10.1011C34.6323 10.57 33.9964 10.8333 33.3334 10.8333H6.66669C6.00365 10.8333 5.36776 10.57 4.89892 10.1011C4.43008 9.63227 4.16669 8.99638 4.16669 8.33334C4.16669 7.6703 4.43008 7.03442 4.89892 6.56558C5.36776 6.09674 6.00365 5.83334 6.66669 5.83334H33.3334Z" fill="#0F5F0D"/>
</g>
<defs>
<clipPath id="clip0_2_50">
<rect width="40" height="40" fill="white"/>
</clipPath>
</defs>
</svg>
